Stephen Hawking vertelt u zijn visie op de vraag: Door wie of wat is het Universum ontstaan' Hawking, de autoriteit op het gebied van het universum en als geleerde een levende legende, beantwoordt met behulp van de moderne natuurkunde en cosmologie de vragen waar filosofen al duizenden jaren over struikelen. Reis mee op een adembenemende trip ┬ánaar het onbekende en laat u leiden door Stephen Hawking!

Stephen Hawking unfolds his personal, compelling vision of the biggest question of all: Who or what created the universe in which we live? The groundbreaking series Into the Universe with Stephen Hawking combined cutting-edge CG with Hawking's witty, distinctive and incisive worldview. Now, we take the journey a step further, as physics and cosmology become tools to answer questions that philosophers have struggled with for thousands of years.

------------------------ Dutch Friends ------------------------
---------------------------------------------------------------
- Bezoek ook eens mijn vrienden op:  http://www.Film-Test.nl --
----- voor mijn Nederlandse Sync. ondertitels ---- en meer ----
------- http://www.Film-Test.nl ---- voor Films en meer -------
---------------------------------------------------------------

General:

Complete name                    : Did God Create the UniverseDid God Create the Universe.avi
Format                           : AVI
Format/Info                      : Audio Video Interleave
File size                        : 707 MiB
Duration                         : 43mn 12s
Overall bit rate                 : 2 288 Kbps

Video:

Format                           : MPEG-4 Visual
Format profile                   : Simple@L3
Format settings, BVOP            : No
Format settings, QPel            : No
Format settings, GMC             : No warppoints
Format settings, Matrix          : Default (H.263)
Codec ID                         : XVID
Codec ID/Hint                    : XviD
Duration                         : 43mn 12s
Bit rate                         : 2 115 Kbps
Width                            : 652 pixels
Height                           : 352 pixels
Display aspect ratio             : 1.852
Frame rate                       : 25.000 fps
Color space                      : YUV
Chroma subsampling               : 4:2:0
Bit depth                        : 8 bits
Scan type                        : Progressive
Compression mode                 : Lossy
Bits/(Pixel*Frame)               : 0.369
Stream size                      : 654 MiB (92%)
Writing library                  : XviD 1.1.2 (UTC 2006-11-01)

Audio:

Format                           : MPEG Audio
Format version                   : Version 1
Format profile                   : Layer 3
Mode                             : Joint stereo
Mode extension                   : MS Stereo
Codec ID                         : 55
Codec ID/Hint                    : MP3
Duration                         : 43mn 12s
Bit rate mode                    : Constant
Bit rate                         : 160 Kbps
Channel(s)                       : 2 channels
Sampling rate                    : 48.0 KHz
Compression mode                 : Lossy
Stream size                      : 49.4 MiB (7%)
Alignment                        : Split accross interleaves
Interleave, duration             : 24 ms (0.60 video frame)
Writing library                  : LAME3.98
